<svg width="1439" height="663" viewBox="0 0 1439 663" fill="none" xmlns="http://www.w3.org/2000/svg">
<rect width="1439" height="663" fill="white"/>
<path d="M552.8 342.4V204.8L440.2 139.8C436.1 137.4 431.1 137.4 427 139.8L314.4 204.8V342.4L427 407.4C431.1 409.8 436.1 409.8 440.2 407.4L552.8 342.4Z" fill="#14A39E"/>
<path d="M504 283L497.4 286.8V262.3L486.1 268.7V293.4L411.3 336.6L394.2 326.7L435.4 303.8L407.3 287.6V255L367 279.1V259.9L459.6 206.5L481.5 219.3L496.5 210.7L441.9 178.7C438 176.4 433.2 176.4 429.3 178.7L358.4 219.7C354.5 221.9 352.2 226 352.1 230.5V293L333.2 330.3L374.3 332.5L429.3 364.3C433.2 366.5 438 366.5 441.8 364.3L512.8 323.3C516.7 321.1 519 316.9 519.1 312.5V249.8L504.1 258.3V283H504Z" fill="white"/>
<path d="M300.9 525.2L265 514.3V505.6L302.5 516.9L315 512V492.2L269.6 477.9C267.6 477.3 266.3 475.4 266.3 473.4V443.3C266.3 441.1 267.9 439.1 270 438.7L304.8 430.9C305.6 430.7 306.5 430.8 307.3 431L340.6 441V449.6L305.6 438.5L294.5 441.5V458.8L340.3 473.3C342.3 473.9 343.6 475.7 343.6 477.8L343.7 506.3C343.7 508.3 342.5 510 340.7 510.7L304.1 525.2C303.1 525.5 302 525.5 300.9 525.2Z" fill="#3A3B3B"/>
<path d="M388.1 479.3L375.7 495L360.6 478.7C359.9 477.9 358.8 477.4 357.7 477.4H346.1L369.5 502.7L351.3 525.7L374.5 525.4C375.7 525.4 376.8 524.8 377.5 523.9L414 477.8H391.1C390 477.8 388.8 478.4 388.1 479.3Z" fill="#3A3B3B"/>
<path d="M441.3 486.2H466.8L460.3 478.4C460 478 459.6 477.8 459.1 477.8H418.5C417.6 477.8 416.9 478.5 417 479.4C417 479.7 417.1 480 417.3 480.2L442.4 517.3H414.5L419.2 524.9C419.5 525.4 420 525.6 420.5 525.6H465.1C466 525.6 466.7 524.9 466.7 524.1C466.7 523.8 466.6 523.5 466.4 523.2L441.3 486.2Z" fill="#3A3B3B"/>
<path d="M556.9 522.9L518.3 432.9C517.9 431.9 516.8 431.3 515.7 431.7C515.1 431.9 514.7 432.3 514.5 432.9L475.9 522.9C475.5 523.9 475.9 525.1 477 525.6C477.3 525.7 477.5 525.8 477.8 525.8H492.8L512.1 480.8L530.5 525.8H555C556.1 525.8 557 524.9 557 523.7C557 523.4 557 523.1 556.9 522.9Z" fill="#3A3B3B"/>
<path d="M601.9 433.6H584.6C583.4 433.6 582.4 434.6 582.4 435.8V477.8H559H549.6C548.8 477.8 548.2 478.4 548.2 479.2C548.2 479.4 548.2 479.6 548.3 479.8L566.2 523C566.9 524.7 568.5 525.8 570.3 525.8H605.3V435.8C605.3 434.6 604.3 433.6 603.1 433.6H601.9ZM568.9 486.2H582.4V518.8L568.9 486.2Z" fill="#3A3B3B"/>
<g clip-path="url(#clip0)">
<path d="M1175.7 397.46V265.46L1066.5 202.46C1064.93 201.556 1063.15 201.08 1061.35 201.08C1059.54 201.08 1057.76 201.556 1056.19 202.46L947 265.42V397.42L1056.19 460.42C1057.76 461.324 1059.54 461.8 1061.35 461.8C1063.15 461.8 1064.93 461.324 1066.5 460.42L1175.7 397.46Z" fill="#14A39E"/>
<path d="M1128.85 340.49L1122.47 344.18V320.6L1111.64 326.73V350.43L1039.87 391.87L1023.42 382.37L1062.96 360.37L1036 344.83V313.64L997.42 336.77V318.34L1086.21 267.08L1107.21 279.37L1121.61 271.13L1069.19 240.44C1067.36 239.37 1065.27 238.806 1063.15 238.806C1061.02 238.806 1058.93 239.37 1057.1 240.44L989 279.7C987.173 280.755 985.657 282.272 984.603 284.1C983.55 285.928 982.997 288.001 983 290.11V350.11L964.92 385.83L1004.35 388L1057.12 418.47C1058.94 419.523 1061.01 420.078 1063.12 420.078C1065.23 420.078 1067.3 419.523 1069.12 418.47L1137.19 379.17C1139.02 378.114 1140.54 376.595 1141.59 374.766C1142.64 372.936 1143.19 370.861 1143.19 368.75V308.61L1128.8 316.8L1128.85 340.49Z" fill="white"/>
</g>
<defs>
<clipPath id="clip0">
<rect width="228.7" height="260.89" fill="white" transform="translate(947 201)"/>
</clipPath>
</defs>
</svg>
