<svg width="886" height="906" viewBox="0 0 886 906" fill="none" xmlns="http://www.w3.org/2000/svg">
<rect width="886" height="906" fill="white"/>
<path d="M560.8 463.4V325.8L448.2 260.8C444.1 258.4 439.1 258.4 435 260.8L322.4 325.8V463.4L435 528.4C439.1 530.8 444.1 530.8 448.2 528.4L560.8 463.4Z" fill="#14A39E"/>
<path d="M512 404L505.4 407.8V383.3L494.1 389.7V414.4L419.3 457.6L402.2 447.7L443.4 424.8L415.3 408.6V376L375 400.1V380.9L467.6 327.5L489.5 340.3L504.5 331.7L449.9 299.7C446 297.4 441.2 297.4 437.3 299.7L366.4 340.7C362.5 342.9 360.2 347 360.1 351.5V414L341.2 451.3L382.3 453.5L437.3 485.3C441.2 487.5 446 487.5 449.8 485.3L520.8 444.3C524.7 442.1 527 437.9 527.1 433.5V370.8L512.1 379.3V404H512Z" fill="white"/>
<path d="M308.9 646.2L273 635.3V626.6L310.5 637.9L323 633V613.2L277.6 598.9C275.6 598.3 274.3 596.4 274.3 594.4V564.3C274.3 562.1 275.9 560.1 278 559.7L312.8 551.9C313.6 551.7 314.5 551.8 315.3 552L348.6 562V570.6L313.6 559.5L302.5 562.5V579.8L348.3 594.3C350.3 594.9 351.6 596.7 351.6 598.8L351.7 627.3C351.7 629.3 350.5 631 348.7 631.7L312.1 646.2C311.1 646.5 310 646.5 308.9 646.2Z" fill="#3A3B3B"/>
<path d="M396.1 600.3L383.7 616L368.6 599.7C367.9 598.9 366.8 598.4 365.7 598.4H354.1L377.5 623.7L359.3 646.7L382.5 646.4C383.7 646.4 384.8 645.8 385.5 644.9L422 598.8H399.1C398 598.8 396.8 599.4 396.1 600.3Z" fill="#3A3B3B"/>
<path d="M449.3 607.2H474.8L468.3 599.4C468 599 467.6 598.8 467.1 598.8H426.5C425.6 598.8 424.9 599.5 425 600.4C425 600.7 425.1 601 425.3 601.2L450.4 638.3H422.5L427.2 645.9C427.5 646.4 428 646.6 428.5 646.6H473.1C474 646.6 474.7 645.9 474.7 645.1C474.7 644.8 474.6 644.5 474.4 644.2L449.3 607.2Z" fill="#3A3B3B"/>
<path d="M564.9 643.9L526.3 553.9C525.9 552.9 524.8 552.3 523.7 552.7C523.1 552.9 522.7 553.3 522.5 553.9L483.9 643.9C483.5 644.9 483.9 646.1 485 646.6C485.3 646.7 485.5 646.8 485.8 646.8H500.8L520.1 601.8L538.5 646.8H563C564.1 646.8 565 645.9 565 644.7C565 644.4 565 644.1 564.9 643.9Z" fill="#3A3B3B"/>
<path d="M609.9 554.6H592.6C591.4 554.6 590.4 555.6 590.4 556.8V598.8H567H557.6C556.8 598.8 556.2 599.4 556.2 600.2C556.2 600.4 556.2 600.6 556.3 600.8L574.2 644C574.9 645.7 576.5 646.8 578.3 646.8H613.3V556.8C613.3 555.6 612.3 554.6 611.1 554.6H609.9ZM576.9 607.2H590.4V639.8L576.9 607.2Z" fill="#3A3B3B"/>
<path d="M254.313 326H246.713V464H254.313" stroke="#14A39E" stroke-width="2" stroke-miterlimit="10"/>
<path d="M115.313 121H107.713V259H115.313" stroke="#14A39E" stroke-width="2" stroke-miterlimit="10"/>
<path d="M273 101.313L273 93.7131L135 93.7131L135 101.313" stroke="#14A39E" stroke-width="2" stroke-miterlimit="10"/>
<path d="M225.1 403V391H225.06L221.3 394.4L220.5 392.6L225.1 388.4H227.3V403H225.1Z" fill="#14A39E"/>
<path d="M86.1 198V186H86.06L82.3 189.4L81.5 187.6L86.1 183.4H88.3V198H86.1Z" fill="#14A39E"/>
<path d="M203.6 80.5V68.5H203.56L199.8 71.9L199 70.1L203.6 65.9H205.8V80.5H203.6Z" fill="#14A39E"/>
<line x1="135" y1="258.5" x2="751" y2="258.5" stroke="#14A39E" stroke-opacity="0.5" stroke-dasharray="12 12"/>
<line x1="135" y1="120.5" x2="751" y2="120.5" stroke="#14A39E" stroke-opacity="0.5" stroke-dasharray="12 12"/>
<line x1="613.5" y1="121" x2="613.5" y2="784" stroke="#14A39E" stroke-opacity="0.5" stroke-dasharray="12 12"/>
<line x1="751.5" y1="121" x2="751.5" y2="784" stroke="#14A39E" stroke-opacity="0.5" stroke-dasharray="12 12"/>
<line x1="135.5" y1="121" x2="135.5" y2="784" stroke="#14A39E" stroke-opacity="0.5" stroke-dasharray="12 12"/>
<line x1="274.5" y1="121" x2="274.5" y2="784" stroke="#14A39E" stroke-opacity="0.5" stroke-dasharray="12 12"/>
<line x1="135.001" y1="645.5" x2="751.001" y2="646.406" stroke="#14A39E" stroke-opacity="0.5" stroke-dasharray="12 12"/>
<line x1="135.001" y1="782.5" x2="751.001" y2="783.406" stroke="#14A39E" stroke-opacity="0.5" stroke-dasharray="12 12"/>
</svg>
