<svg width="751" height="395" viewBox="0 0 751 395" fill="none" xmlns="http://www.w3.org/2000/svg">
<rect width="751" height="395" fill="white"/>
<path d="M272.1 247.5V147.9L190.6 100.9C187.6 99.2 184 99.2 181 100.9L99.6 147.9V247.5L181.1 294.5C184 296.2 187.7 296.3 190.6 294.6L272.1 247.5Z" fill="#14A39E"/>
<path d="M236.8 204.5L232 207.3V189.5L223.8 194.1V212L169.7 243.3L157.3 236.1L187.1 219.6L166.7 207.8V184.3L137.6 201.8V187.9L204.6 149.2L220.4 158.5L231.3 152.3L191.8 129.2C189 127.6 185.5 127.6 182.7 129.2L131.4 158.8C128.6 160.4 126.9 163.4 126.9 166.7V211.9L113.2 238.9L143 240.5L182.8 263.5C185.6 265.1 189.1 265.1 191.9 263.5L243.2 233.8C246 232.2 247.7 229.2 247.7 225.9V180.5L236.8 186.7V204.5Z" fill="white"/>
<path d="M347.5 245.2L311.6 234.3V225.6L349.1 236.9L361.5 232V212.3L316.1 197.9C314.1 197.3 312.8 195.4 312.8 193.4V163.3C312.8 161.1 314.4 159.1 316.6 158.7L351.4 150.9C352.2 150.7 353.1 150.8 353.9 151L387.2 161V169.6L352.2 158.5L341.1 161.5V178.9L386.9 193.4C388.9 194 390.2 195.8 390.3 197.9L390.4 226.4C390.4 228.4 389.2 230.1 387.4 230.8L350.7 245.1C349.7 245.5 348.5 245.6 347.5 245.2Z" fill="#3A3B3B"/>
<path d="M434.6 199.4L422.2 215L407.1 198.7C406.3 197.9 405.3 197.4 404.2 197.4H392.7L416.1 222.7L397.9 245.7L421.1 245.4C422.3 245.4 423.4 244.8 424.1 243.9L460.6 197.8H437.7C436.5 197.9 435.4 198.4 434.6 199.4Z" fill="#3A3B3B"/>
<path d="M487.8 206.2H513.3L506.8 198.4C506.5 198 506.1 197.8 505.6 197.8H465C464.1 197.8 463.5 198.5 463.5 199.4C463.5 199.7 463.6 200 463.8 200.3L488.9 237.4H461L465.7 245C466 245.5 466.5 245.7 467 245.7H511.6C512.5 245.7 513.1 245 513.1 244.1C513.1 243.8 513 243.5 512.8 243.2L487.8 206.2Z" fill="#3A3B3B"/>
<path d="M603.4 242.9L564.8 152.9C564.4 151.9 563.3 151.3 562.2 151.7C561.6 151.9 561.2 152.3 561 152.9L522.4 242.9C521.9 243.9 522.3 245.1 523.3 245.6C523.6 245.7 523.9 245.8 524.2 245.8H539.2L558.5 200.8L576.9 245.8H601.4C602.5 245.8 603.4 245 603.5 243.9C603.6 243.5 603.6 243.2 603.4 242.9Z" fill="#3A3B3B"/>
<path d="M648.5 153.6H631.2C630 153.6 629 154.6 629 155.8V197.8H605.6H596.2C595.4 197.8 594.8 198.4 594.8 199.2C594.8 199.4 594.8 199.6 594.9 199.8L612.8 243C613.5 244.7 615.1 245.8 616.9 245.8H651.9V155.9C651.9 154.7 650.9 153.7 649.7 153.7H648.5V153.6ZM615.5 206.2H629V238.8L615.5 206.2Z" fill="#3A3B3B"/>
</svg>
