<svg width="2164" height="1334" viewBox="0 0 2164 1334" fill="none" xmlns="http://www.w3.org/2000/svg">
<rect width="2164" height="1334" fill="white"/>
<rect x="119" y="560" width="519" height="273" fill="#304156"/>
<rect x="774" y="560" width="519" height="273" fill="#304156"/>
<rect x="119" y="201" width="519" height="273" fill="#F0F2F5"/>
<rect x="119" y="919" width="519" height="273" fill="white"/>
<rect x="1479" y="559" width="519" height="273" fill="white"/>
<rect x="774" y="202" width="519" height="273" fill="#F0F2F5"/>
<rect x="774" y="919" width="519" height="273" fill="#F0F2F5"/>
<path d="M307.089 731.088V662.328L250.824 629.88C248.752 628.707 246.267 628.707 244.196 629.88L188 662.328V731.088L244.265 763.536C246.267 764.709 248.821 764.778 250.824 763.605L307.089 731.088Z" fill="white"/>
<path d="M282.719 701.402L279.405 703.335V691.047L273.744 694.223V706.58L236.395 728.189L227.834 723.218L248.407 711.827L234.324 703.681V687.457L214.234 699.538V689.942L260.489 663.225L271.397 669.645L278.922 665.365L251.652 649.418C249.719 648.313 247.303 648.313 245.37 649.418L209.954 669.853C208.021 670.957 206.847 673.028 206.847 675.307V706.511L197.389 725.151L217.962 726.256L245.439 742.134C247.372 743.239 249.788 743.239 251.721 742.134L287.137 721.63C289.07 720.526 290.244 718.455 290.244 716.176V684.834L282.719 689.114V701.402Z" fill="#304156"/>
<path d="M359.142 729.5L334.358 721.975V715.969L360.247 723.77L368.808 720.388V706.787L337.465 696.846C336.084 696.432 335.187 695.12 335.187 693.739V672.959C335.187 671.44 336.291 670.06 337.81 669.784L361.835 664.399C362.387 664.261 363.008 664.33 363.561 664.468L386.55 671.371V677.309L362.387 669.645L354.724 671.717V683.729L386.343 693.739C387.724 694.154 388.621 695.396 388.69 696.846L388.759 716.521C388.759 717.902 387.931 719.076 386.688 719.559L361.352 729.431C360.661 729.708 359.833 729.777 359.142 729.5Z" fill="white"/>
<path d="M419.274 697.882L410.713 708.651L400.288 697.398C399.736 696.846 399.046 696.501 398.286 696.501H390.347L406.502 713.967L393.937 729.846L409.954 729.639C410.782 729.639 411.541 729.224 412.025 728.603L437.223 696.777H421.414C420.585 696.846 419.826 697.191 419.274 697.882Z" fill="white"/>
<path d="M456.001 702.576H473.606L469.118 697.191C468.911 696.915 468.635 696.777 468.29 696.777H440.261C439.639 696.777 439.225 697.26 439.225 697.882C439.225 698.089 439.294 698.296 439.432 698.503L456.761 724.116H437.499L440.744 729.362C440.951 729.708 441.296 729.846 441.641 729.846H472.432C473.053 729.846 473.467 729.362 473.467 728.741C473.467 728.534 473.398 728.327 473.26 728.12L456.001 702.576Z" fill="white"/>
<path d="M535.808 727.913L509.16 665.779C508.883 665.089 508.124 664.675 507.365 664.951C506.95 665.089 506.674 665.365 506.536 665.779L479.888 727.913C479.543 728.603 479.819 729.431 480.509 729.777C480.716 729.846 480.923 729.915 481.131 729.915H491.486L504.81 698.848L517.513 729.915H534.427C535.186 729.915 535.808 729.362 535.877 728.603C535.946 728.327 535.946 728.12 535.808 727.913Z" fill="white"/>
<path d="M566.943 666.263H555C554.172 666.263 553.481 666.953 553.481 667.782V696.777H537.327H530.837C530.285 696.777 529.871 697.191 529.871 697.744C529.871 697.882 529.871 698.02 529.94 698.158L542.297 727.982C542.78 729.155 543.885 729.915 545.128 729.915H569.291V667.851C569.291 667.022 568.6 666.332 567.772 666.332H566.943V666.263ZM544.161 702.576H553.481V725.082L544.161 702.576Z" fill="white"/>
<path d="M962.089 731.088V662.328L905.824 629.88C903.752 628.707 901.267 628.707 899.196 629.88L843 662.328V731.088L899.265 763.536C901.267 764.709 903.821 764.778 905.824 763.605L962.089 731.088Z" fill="#1E2B3A"/>
<path d="M937.719 701.402L934.405 703.335V691.047L928.744 694.223V706.58L891.395 728.189L882.834 723.218L903.407 711.827L889.324 703.681V687.457L869.234 699.538V689.942L915.489 663.225L926.397 669.645L933.922 665.365L906.652 649.418C904.719 648.313 902.303 648.313 900.37 649.418L864.954 669.853C863.021 670.957 861.847 673.028 861.847 675.307V706.511L852.389 725.151L872.962 726.256L900.439 742.134C902.372 743.239 904.788 743.239 906.721 742.134L942.137 721.63C944.07 720.526 945.244 718.455 945.244 716.176V684.834L937.719 689.114V701.402Z" fill="#304156"/>
<path d="M1014.14 729.5L989.358 721.975V715.969L1015.25 723.77L1023.81 720.388V706.787L992.465 696.846C991.084 696.432 990.187 695.12 990.187 693.739V672.959C990.187 671.44 991.291 670.06 992.81 669.784L1016.83 664.399C1017.39 664.261 1018.01 664.33 1018.56 664.468L1041.55 671.371V677.309L1017.39 669.645L1009.72 671.717V683.729L1041.34 693.739C1042.72 694.154 1043.62 695.396 1043.69 696.846L1043.76 716.521C1043.76 717.902 1042.93 719.076 1041.69 719.559L1016.35 729.431C1015.66 729.708 1014.83 729.777 1014.14 729.5Z" fill="#1E2B3A"/>
<path d="M1074.27 697.882L1065.71 708.651L1055.29 697.398C1054.74 696.846 1054.05 696.501 1053.29 696.501H1045.35L1061.5 713.967L1048.94 729.846L1064.95 729.639C1065.78 729.639 1066.54 729.224 1067.02 728.603L1092.22 696.777H1076.41C1075.59 696.846 1074.83 697.191 1074.27 697.882Z" fill="#1E2B3A"/>
<path d="M1111 702.576H1128.61L1124.12 697.191C1123.91 696.915 1123.63 696.777 1123.29 696.777H1095.26C1094.64 696.777 1094.23 697.26 1094.23 697.882C1094.23 698.089 1094.29 698.296 1094.43 698.503L1111.76 724.116H1092.5L1095.74 729.362C1095.95 729.708 1096.3 729.846 1096.64 729.846H1127.43C1128.05 729.846 1128.47 729.362 1128.47 728.741C1128.47 728.534 1128.4 728.327 1128.26 728.12L1111 702.576Z" fill="#1E2B3A"/>
<path d="M1190.81 727.913L1164.16 665.779C1163.88 665.089 1163.12 664.675 1162.36 664.951C1161.95 665.089 1161.67 665.365 1161.54 665.779L1134.89 727.913C1134.54 728.603 1134.82 729.431 1135.51 729.777C1135.72 729.846 1135.92 729.915 1136.13 729.915H1146.49L1159.81 698.848L1172.51 729.915H1189.43C1190.19 729.915 1190.81 729.362 1190.88 728.603C1190.95 728.327 1190.95 728.12 1190.81 727.913Z" fill="#1E2B3A"/>
<path d="M1221.94 666.263H1210C1209.17 666.263 1208.48 666.953 1208.48 667.782V696.777H1192.33H1185.84C1185.28 696.777 1184.87 697.191 1184.87 697.744C1184.87 697.882 1184.87 698.02 1184.94 698.158L1197.3 727.982C1197.78 729.155 1198.89 729.915 1200.13 729.915H1224.29V667.851C1224.29 667.022 1223.6 666.332 1222.77 666.332H1221.94V666.263ZM1199.16 702.576H1208.48V725.082L1199.16 702.576Z" fill="#1E2B3A"/>
<path d="M307.089 372.088V303.328L250.824 270.88C248.752 269.707 246.267 269.707 244.196 270.88L188 303.328V372.088L244.265 404.536C246.267 405.709 248.821 405.778 250.824 404.605L307.089 372.088Z" fill="#14A39E"/>
<path d="M282.719 342.402L279.405 344.335V332.047L273.744 335.223V347.58L236.395 369.189L227.834 364.218L248.407 352.827L234.324 344.681V328.457L214.234 340.538V330.942L260.489 304.225L271.397 310.645L278.922 306.365L251.652 290.418C249.719 289.313 247.303 289.313 245.37 290.418L209.954 310.853C208.021 311.957 206.847 314.028 206.847 316.307V347.511L197.389 366.151L217.962 367.256L245.439 383.134C247.372 384.239 249.788 384.239 251.721 383.134L287.137 362.63C289.07 361.526 290.244 359.455 290.244 357.176V325.834L282.719 330.114V342.402Z" fill="white"/>
<path d="M359.142 370.5L334.358 362.975V356.969L360.247 364.77L368.808 361.388V347.787L337.465 337.846C336.084 337.432 335.187 336.12 335.187 334.739V313.959C335.187 312.44 336.291 311.06 337.81 310.784L361.835 305.399C362.387 305.261 363.008 305.33 363.561 305.468L386.55 312.371V318.309L362.387 310.645L354.724 312.717V324.729L386.343 334.739C387.724 335.154 388.621 336.396 388.69 337.846L388.759 357.521C388.759 358.902 387.931 360.076 386.688 360.559L361.352 370.431C360.661 370.708 359.833 370.777 359.142 370.5Z" fill="#3A3B3B"/>
<path d="M419.274 338.882L410.713 349.651L400.288 338.398C399.736 337.846 399.046 337.501 398.286 337.501H390.347L406.502 354.967L393.937 370.846L409.954 370.639C410.782 370.639 411.541 370.224 412.025 369.603L437.223 337.777H421.414C420.585 337.846 419.826 338.191 419.274 338.882Z" fill="#3A3B3B"/>
<path d="M456.001 343.576H473.606L469.118 338.191C468.911 337.915 468.635 337.777 468.29 337.777H440.261C439.639 337.777 439.225 338.26 439.225 338.882C439.225 339.089 439.294 339.296 439.432 339.503L456.761 365.116H437.499L440.744 370.362C440.951 370.708 441.296 370.846 441.641 370.846H472.432C473.053 370.846 473.467 370.362 473.467 369.741C473.467 369.534 473.398 369.327 473.26 369.12L456.001 343.576Z" fill="#3A3B3B"/>
<path d="M535.808 368.913L509.16 306.779C508.883 306.089 508.124 305.675 507.365 305.951C506.95 306.089 506.674 306.365 506.536 306.779L479.888 368.913C479.543 369.603 479.819 370.431 480.509 370.777C480.716 370.846 480.923 370.915 481.131 370.915H491.486L504.81 339.848L517.513 370.915H534.427C535.186 370.915 535.808 370.362 535.877 369.603C535.946 369.327 535.946 369.12 535.808 368.913Z" fill="#3A3B3B"/>
<path d="M566.943 307.263H555C554.172 307.263 553.481 307.953 553.481 308.782V337.777H537.327H530.837C530.285 337.777 529.871 338.191 529.871 338.744C529.871 338.882 529.871 339.02 529.94 339.158L542.297 368.982C542.78 370.155 543.885 370.915 545.128 370.915H569.291V308.851C569.291 308.022 568.6 307.332 567.772 307.332H566.943V307.263ZM544.161 343.576H553.481V366.082L544.161 343.576Z" fill="#3A3B3B"/>
<path d="M307.089 1090.09V1021.33L250.824 988.88C248.752 987.707 246.267 987.707 244.196 988.88L188 1021.33V1090.09L244.265 1122.54C246.267 1123.71 248.821 1123.78 250.824 1122.6L307.089 1090.09Z" fill="#92413B"/>
<path d="M282.719 1060.4L279.405 1062.34V1050.05L273.744 1053.22V1065.58L236.395 1087.19L227.834 1082.22L248.407 1070.83L234.324 1062.68V1046.46L214.234 1058.54V1048.94L260.489 1022.23L271.397 1028.65L278.922 1024.37L251.652 1008.42C249.719 1007.31 247.303 1007.31 245.37 1008.42L209.954 1028.85C208.021 1029.96 206.847 1032.03 206.847 1034.31V1065.51L197.389 1084.15L217.962 1085.26L245.439 1101.13C247.372 1102.24 249.788 1102.24 251.721 1101.13L287.137 1080.63C289.07 1079.53 290.244 1077.45 290.244 1075.18V1043.83L282.719 1048.11V1060.4Z" fill="white"/>
<path d="M359.142 1088.5L334.358 1080.98V1074.97L360.247 1082.77L368.808 1079.39V1065.79L337.465 1055.85C336.084 1055.43 335.187 1054.12 335.187 1052.74V1031.96C335.187 1030.44 336.291 1029.06 337.81 1028.78L361.835 1023.4C362.387 1023.26 363.008 1023.33 363.561 1023.47L386.55 1030.37V1036.31L362.387 1028.65L354.724 1030.72V1042.73L386.343 1052.74C387.724 1053.15 388.621 1054.4 388.69 1055.85L388.759 1075.52C388.759 1076.9 387.931 1078.08 386.688 1078.56L361.352 1088.43C360.661 1088.71 359.833 1088.78 359.142 1088.5Z" fill="#92413B"/>
<path d="M419.274 1056.88L410.713 1067.65L400.288 1056.4C399.736 1055.85 399.046 1055.5 398.286 1055.5H390.347L406.502 1072.97L393.937 1088.85L409.954 1088.64C410.782 1088.64 411.541 1088.22 412.025 1087.6L437.223 1055.78H421.414C420.585 1055.85 419.826 1056.19 419.274 1056.88Z" fill="#92413B"/>
<path d="M456.001 1061.58H473.606L469.118 1056.19C468.911 1055.92 468.635 1055.78 468.29 1055.78H440.261C439.639 1055.78 439.225 1056.26 439.225 1056.88C439.225 1057.09 439.294 1057.3 439.432 1057.5L456.761 1083.12H437.499L440.744 1088.36C440.951 1088.71 441.296 1088.85 441.641 1088.85H472.432C473.053 1088.85 473.467 1088.36 473.467 1087.74C473.467 1087.53 473.398 1087.33 473.26 1087.12L456.001 1061.58Z" fill="#92413B"/>
<path d="M535.808 1086.91L509.16 1024.78C508.883 1024.09 508.124 1023.67 507.365 1023.95C506.95 1024.09 506.674 1024.37 506.536 1024.78L479.888 1086.91C479.543 1087.6 479.819 1088.43 480.509 1088.78C480.716 1088.85 480.923 1088.91 481.131 1088.91H491.486L504.81 1057.85L517.513 1088.91H534.427C535.186 1088.91 535.808 1088.36 535.877 1087.6C535.946 1087.33 535.946 1087.12 535.808 1086.91Z" fill="#92413B"/>
<path d="M566.943 1025.26H555C554.172 1025.26 553.481 1025.95 553.481 1026.78V1055.78H537.327H530.837C530.285 1055.78 529.871 1056.19 529.871 1056.74C529.871 1056.88 529.871 1057.02 529.94 1057.16L542.297 1086.98C542.78 1088.16 543.885 1088.91 545.128 1088.91H569.291V1026.85C569.291 1026.02 568.6 1025.33 567.772 1025.33H566.943V1025.26ZM544.161 1061.58H553.481V1084.08L544.161 1061.58Z" fill="#92413B"/>
<path d="M1667.09 730.088V661.328L1610.82 628.88C1608.75 627.707 1606.27 627.707 1604.2 628.88L1548 661.328V730.088L1604.27 762.536C1606.27 763.709 1608.82 763.778 1610.82 762.605L1667.09 730.088Z" fill="#FF00FF"/>
<path d="M1642.72 700.402L1639.4 702.335V690.047L1633.74 693.223V705.58L1596.39 727.189L1587.83 722.218L1608.41 710.827L1594.32 702.681V686.457L1574.23 698.538V688.942L1620.49 662.225L1631.4 668.645L1638.92 664.365L1611.65 648.418C1609.72 647.313 1607.3 647.313 1605.37 648.418L1569.95 668.853C1568.02 669.957 1566.85 672.028 1566.85 674.307V705.511L1557.39 724.151L1577.96 725.256L1605.44 741.134C1607.37 742.239 1609.79 742.239 1611.72 741.134L1647.14 720.63C1649.07 719.526 1650.24 717.455 1650.24 715.176V683.834L1642.72 688.114V700.402Z" fill="white"/>
<path d="M1719.14 728.5L1694.36 720.975V714.969L1720.25 722.77L1728.81 719.388V705.787L1697.46 695.846C1696.08 695.432 1695.19 694.12 1695.19 692.739V671.959C1695.19 670.44 1696.29 669.06 1697.81 668.784L1721.83 663.399C1722.39 663.261 1723.01 663.33 1723.56 663.468L1746.55 670.371V676.309L1722.39 668.645L1714.72 670.717V682.729L1746.34 692.739C1747.72 693.154 1748.62 694.396 1748.69 695.846L1748.76 715.521C1748.76 716.902 1747.93 718.076 1746.69 718.559L1721.35 728.431C1720.66 728.708 1719.83 728.777 1719.14 728.5Z" fill="#FF00FF"/>
<path d="M1779.27 696.882L1770.71 707.651L1760.29 696.398C1759.74 695.846 1759.05 695.501 1758.29 695.501H1750.35L1766.5 712.967L1753.94 728.846L1769.95 728.639C1770.78 728.639 1771.54 728.224 1772.02 727.603L1797.22 695.777H1781.41C1780.59 695.846 1779.83 696.191 1779.27 696.882Z" fill="#FF00FF"/>
<path d="M1816 701.576H1833.61L1829.12 696.191C1828.91 695.915 1828.63 695.777 1828.29 695.777H1800.26C1799.64 695.777 1799.23 696.26 1799.23 696.882C1799.23 697.089 1799.29 697.296 1799.43 697.503L1816.76 723.116H1797.5L1800.74 728.362C1800.95 728.708 1801.3 728.846 1801.64 728.846H1832.43C1833.05 728.846 1833.47 728.362 1833.47 727.741C1833.47 727.534 1833.4 727.327 1833.26 727.12L1816 701.576Z" fill="#FF00FF"/>
<path d="M1895.81 726.913L1869.16 664.779C1868.88 664.089 1868.12 663.675 1867.36 663.951C1866.95 664.089 1866.67 664.365 1866.54 664.779L1839.89 726.913C1839.54 727.603 1839.82 728.431 1840.51 728.777C1840.72 728.846 1840.92 728.915 1841.13 728.915H1851.49L1864.81 697.848L1877.51 728.915H1894.43C1895.19 728.915 1895.81 728.362 1895.88 727.603C1895.95 727.327 1895.95 727.12 1895.81 726.913Z" fill="#FF00FF"/>
<path d="M1926.94 665.263H1915C1914.17 665.263 1913.48 665.953 1913.48 666.782V695.777H1897.33H1890.84C1890.28 695.777 1889.87 696.191 1889.87 696.744C1889.87 696.882 1889.87 697.02 1889.94 697.158L1902.3 726.982C1902.78 728.155 1903.89 728.915 1905.13 728.915H1929.29V666.851C1929.29 666.022 1928.6 665.332 1927.77 665.332H1926.94V665.263ZM1904.16 701.576H1913.48V724.082L1904.16 701.576Z" fill="#FF00FF"/>
<path d="M962.089 373.088V304.328L905.824 271.88C903.752 270.707 901.267 270.707 899.196 271.88L843 304.328V373.088L899.265 405.536C901.267 406.709 903.821 406.778 905.824 405.605L962.089 373.088Z" fill="#A3B7C2"/>
<path d="M937.719 343.402L934.405 345.335V333.047L928.744 336.223V348.58L891.395 370.189L882.834 365.218L903.407 353.827L889.324 345.681V329.457L869.234 341.538V331.942L915.489 305.225L926.397 311.645L933.922 307.365L906.652 291.418C904.719 290.313 902.303 290.313 900.37 291.418L864.954 311.853C863.021 312.957 861.847 315.028 861.847 317.307V348.511L852.389 367.151L872.962 368.256L900.439 384.134C902.372 385.239 904.788 385.239 906.721 384.134L942.137 363.63C944.07 362.526 945.244 360.455 945.244 358.176V326.834L937.719 331.114V343.402Z" fill="#F0F2F5"/>
<path d="M1014.14 371.5L989.358 363.975V357.969L1015.25 365.77L1023.81 362.388V348.787L992.465 338.846C991.084 338.432 990.187 337.12 990.187 335.739V314.959C990.187 313.44 991.291 312.06 992.81 311.784L1016.83 306.399C1017.39 306.261 1018.01 306.33 1018.56 306.468L1041.55 313.371V319.309L1017.39 311.645L1009.72 313.717V325.729L1041.34 335.739C1042.72 336.154 1043.62 337.396 1043.69 338.846L1043.76 358.521C1043.76 359.902 1042.93 361.076 1041.69 361.559L1016.35 371.431C1015.66 371.708 1014.83 371.777 1014.14 371.5Z" fill="#A3B7C2"/>
<path d="M1074.27 339.882L1065.71 350.651L1055.29 339.398C1054.74 338.846 1054.05 338.501 1053.29 338.501H1045.35L1061.5 355.967L1048.94 371.846L1064.95 371.639C1065.78 371.639 1066.54 371.224 1067.02 370.603L1092.22 338.777H1076.41C1075.59 338.846 1074.83 339.191 1074.27 339.882Z" fill="#A3B7C2"/>
<path d="M1111 344.576H1128.61L1124.12 339.191C1123.91 338.915 1123.63 338.777 1123.29 338.777H1095.26C1094.64 338.777 1094.23 339.26 1094.23 339.882C1094.23 340.089 1094.29 340.296 1094.43 340.503L1111.76 366.116H1092.5L1095.74 371.362C1095.95 371.708 1096.3 371.846 1096.64 371.846H1127.43C1128.05 371.846 1128.47 371.362 1128.47 370.741C1128.47 370.534 1128.4 370.327 1128.26 370.12L1111 344.576Z" fill="#A3B7C2"/>
<path d="M1190.81 369.913L1164.16 307.779C1163.88 307.089 1163.12 306.675 1162.36 306.951C1161.95 307.089 1161.67 307.365 1161.54 307.779L1134.89 369.913C1134.54 370.603 1134.82 371.431 1135.51 371.777C1135.72 371.846 1135.92 371.915 1136.13 371.915H1146.49L1159.81 340.848L1172.51 371.915H1189.43C1190.19 371.915 1190.81 371.362 1190.88 370.603C1190.95 370.327 1190.95 370.12 1190.81 369.913Z" fill="#A3B7C2"/>
<path d="M1221.94 308.263H1210C1209.17 308.263 1208.48 308.953 1208.48 309.782V338.777H1192.33H1185.84C1185.28 338.777 1184.87 339.191 1184.87 339.744C1184.87 339.882 1184.87 340.02 1184.94 340.158L1197.3 369.982C1197.78 371.155 1198.89 371.915 1200.13 371.915H1224.29V309.851C1224.29 309.022 1223.6 308.332 1222.77 308.332H1221.94V308.263ZM1199.16 344.576H1208.48V367.082L1199.16 344.576Z" fill="#A3B7C2"/>
<path d="M962.089 1090.09V1021.33L905.824 988.88C903.752 987.707 901.267 987.707 899.196 988.88L843 1021.33V1090.09L899.265 1122.54C901.267 1123.71 903.821 1123.78 905.824 1122.6L962.089 1090.09Z" fill="#92413B"/>
<path d="M937.719 1060.4L934.405 1062.34V1050.05L928.744 1053.22V1065.58L891.395 1087.19L882.834 1082.22L903.407 1070.83L889.324 1062.68V1046.46L869.234 1058.54V1048.94L915.489 1022.23L926.397 1028.65L933.922 1024.37L906.652 1008.42C904.719 1007.31 902.303 1007.31 900.37 1008.42L864.954 1028.85C863.021 1029.96 861.847 1032.03 861.847 1034.31V1065.51L852.389 1084.15L872.962 1085.26L900.439 1101.13C902.372 1102.24 904.788 1102.24 906.721 1101.13L942.137 1080.63C944.07 1079.53 945.244 1077.45 945.244 1075.18V1043.83L937.719 1048.11V1060.4Z" fill="#F0F2F5"/>
<path d="M1014.14 1088.5L989.358 1080.98V1074.97L1015.25 1082.77L1023.81 1079.39V1065.79L992.465 1055.85C991.084 1055.43 990.187 1054.12 990.187 1052.74V1031.96C990.187 1030.44 991.291 1029.06 992.81 1028.78L1016.83 1023.4C1017.39 1023.26 1018.01 1023.33 1018.56 1023.47L1041.55 1030.37V1036.31L1017.39 1028.65L1009.72 1030.72V1042.73L1041.34 1052.74C1042.72 1053.15 1043.62 1054.4 1043.69 1055.85L1043.76 1075.52C1043.76 1076.9 1042.93 1078.08 1041.69 1078.56L1016.35 1088.43C1015.66 1088.71 1014.83 1088.78 1014.14 1088.5Z" fill="#92413B"/>
<path d="M1074.27 1056.88L1065.71 1067.65L1055.29 1056.4C1054.74 1055.85 1054.05 1055.5 1053.29 1055.5H1045.35L1061.5 1072.97L1048.94 1088.85L1064.95 1088.64C1065.78 1088.64 1066.54 1088.22 1067.02 1087.6L1092.22 1055.78H1076.41C1075.59 1055.85 1074.83 1056.19 1074.27 1056.88Z" fill="#92413B"/>
<path d="M1111 1061.58H1128.61L1124.12 1056.19C1123.91 1055.92 1123.63 1055.78 1123.29 1055.78H1095.26C1094.64 1055.78 1094.23 1056.26 1094.23 1056.88C1094.23 1057.09 1094.29 1057.3 1094.43 1057.5L1111.76 1083.12H1092.5L1095.74 1088.36C1095.95 1088.71 1096.3 1088.85 1096.64 1088.85H1127.43C1128.05 1088.85 1128.47 1088.36 1128.47 1087.74C1128.47 1087.53 1128.4 1087.33 1128.26 1087.12L1111 1061.58Z" fill="#92413B"/>
<path d="M1190.81 1086.91L1164.16 1024.78C1163.88 1024.09 1163.12 1023.67 1162.36 1023.95C1161.95 1024.09 1161.67 1024.37 1161.54 1024.78L1134.89 1086.91C1134.54 1087.6 1134.82 1088.43 1135.51 1088.78C1135.72 1088.85 1135.92 1088.91 1136.13 1088.91H1146.49L1159.81 1057.85L1172.51 1088.91H1189.43C1190.19 1088.91 1190.81 1088.36 1190.88 1087.6C1190.95 1087.33 1190.95 1087.12 1190.81 1086.91Z" fill="#92413B"/>
<path d="M1221.94 1025.26H1210C1209.17 1025.26 1208.48 1025.95 1208.48 1026.78V1055.78H1192.33H1185.84C1185.28 1055.78 1184.87 1056.19 1184.87 1056.74C1184.87 1056.88 1184.87 1057.02 1184.94 1057.16L1197.3 1086.98C1197.78 1088.16 1198.89 1088.91 1200.13 1088.91H1224.29V1026.85C1224.29 1026.02 1223.6 1025.33 1222.77 1025.33H1221.94V1025.26ZM1199.16 1061.58H1208.48V1084.08L1199.16 1061.58Z" fill="#92413B"/>
<path d="M1667.09 373.088V304.328L1610.82 271.88C1608.75 270.707 1606.27 270.707 1604.2 271.88L1548 304.328V373.088L1604.27 405.536C1606.27 406.709 1608.82 406.778 1610.82 405.605L1667.09 373.088Z" fill="#1890FF"/>
<path d="M1642.72 343.402L1639.4 345.335V333.047L1633.74 336.223V348.58L1596.39 370.189L1587.83 365.218L1608.41 353.827L1594.32 345.681V329.457L1574.23 341.538V331.942L1620.49 305.225L1631.4 311.645L1638.92 307.365L1611.65 291.418C1609.72 290.313 1607.3 290.313 1605.37 291.418L1569.95 311.853C1568.02 312.957 1566.85 315.028 1566.85 317.307V348.511L1557.39 367.151L1577.96 368.256L1605.44 384.134C1607.37 385.239 1609.79 385.239 1611.72 384.134L1647.14 363.63C1649.07 362.526 1650.24 360.455 1650.24 358.176V326.834L1642.72 331.114V343.402Z" fill="white"/>
<path d="M1719.14 371.5L1694.36 363.975V357.969L1720.25 365.77L1728.81 362.388V348.787L1697.46 338.846C1696.08 338.432 1695.19 337.12 1695.19 335.739V314.959C1695.19 313.44 1696.29 312.06 1697.81 311.784L1721.83 306.399C1722.39 306.261 1723.01 306.33 1723.56 306.468L1746.55 313.371V319.309L1722.39 311.645L1714.72 313.717V325.729L1746.34 335.739C1747.72 336.154 1748.62 337.396 1748.69 338.846L1748.76 358.521C1748.76 359.902 1747.93 361.076 1746.69 361.559L1721.35 371.431C1720.66 371.708 1719.83 371.777 1719.14 371.5Z" fill="#35527E"/>
<path d="M1779.27 339.882L1770.71 350.651L1760.29 339.398C1759.74 338.846 1759.05 338.501 1758.29 338.501H1750.35L1766.5 355.967L1753.94 371.846L1769.95 371.639C1770.78 371.639 1771.54 371.224 1772.02 370.603L1797.22 338.777H1781.41C1780.59 338.846 1779.83 339.191 1779.27 339.882Z" fill="#35527E"/>
<path d="M1816 344.576H1833.61L1829.12 339.191C1828.91 338.915 1828.63 338.777 1828.29 338.777H1800.26C1799.64 338.777 1799.23 339.26 1799.23 339.882C1799.23 340.089 1799.29 340.296 1799.43 340.503L1816.76 366.116H1797.5L1800.74 371.362C1800.95 371.708 1801.3 371.846 1801.64 371.846H1832.43C1833.05 371.846 1833.47 371.362 1833.47 370.741C1833.47 370.534 1833.4 370.327 1833.26 370.12L1816 344.576Z" fill="#35527E"/>
<path d="M1895.81 369.913L1869.16 307.779C1868.88 307.089 1868.12 306.675 1867.36 306.951C1866.95 307.089 1866.67 307.365 1866.54 307.779L1839.89 369.913C1839.54 370.603 1839.82 371.431 1840.51 371.777C1840.72 371.846 1840.92 371.915 1841.13 371.915H1851.49L1864.81 340.848L1877.51 371.915H1894.43C1895.19 371.915 1895.81 371.362 1895.88 370.603C1895.95 370.327 1895.95 370.12 1895.81 369.913Z" fill="#35527E"/>
<path d="M1926.94 308.263H1915C1914.17 308.263 1913.48 308.953 1913.48 309.782V338.777H1897.33H1890.84C1890.28 338.777 1889.87 339.191 1889.87 339.744C1889.87 339.882 1889.87 340.02 1889.94 340.158L1902.3 369.982C1902.78 371.155 1903.89 371.915 1905.13 371.915H1929.29V309.851C1929.29 309.022 1928.6 308.332 1927.77 308.332H1926.94V308.263ZM1904.16 344.576H1913.48V367.082L1904.16 344.576Z" fill="#35527E"/>
<path d="M1035.88 122.25H1031.12V110.375H1035.88V122.25ZM1035.88 131.75H1031.12V127H1035.88V131.75ZM1007.38 138.875H1059.62L1033.5 93.75L1007.38 138.875Z" fill="#EDAB4A"/>
<path d="M1739 91C1752.75 91 1764 102.25 1764 116C1764 129.75 1752.75 141 1739 141C1725.25 141 1714 129.75 1714 116C1714 102.25 1725.25 91 1739 91ZM1739 96C1734.25 96 1730 97.5 1726.75 100.25L1754.75 128.25C1757.25 124.75 1759 120.5 1759 116C1759 105 1750 96 1739 96V96ZM1751.25 131.75L1723.25 103.75C1720.5 107 1719 111.25 1719 116C1719 127 1728 136 1739 136C1743.75 136 1748 134.5 1751.25 131.75V131.75Z" fill="#E14A40"/>
<path d="M401.5 105.5L371.5 135.5L357.75 121.75L361.275 118.225L371.5 128.425L397.975 101.975L401.5 105.5Z" fill="#14A39E"/>
<rect x="1479" y="917" width="519" height="273" fill="#304156"/>
<path d="M1667.09 1088.09V1019.33L1610.82 986.88C1608.75 985.707 1606.27 985.707 1604.2 986.88L1548 1019.33V1088.09L1604.27 1120.54C1606.27 1121.71 1608.82 1121.78 1610.82 1120.6L1667.09 1088.09Z" fill="#A3B7C2"/>
<path d="M1642.72 1058.4L1639.4 1060.34V1048.05L1633.74 1051.22V1063.58L1596.39 1085.19L1587.83 1080.22L1608.41 1068.83L1594.32 1060.68V1044.46L1574.23 1056.54V1046.94L1620.49 1020.23L1631.4 1026.65L1638.92 1022.37L1611.65 1006.42C1609.72 1005.31 1607.3 1005.31 1605.37 1006.42L1569.95 1026.85C1568.02 1027.96 1566.85 1030.03 1566.85 1032.31V1063.51L1557.39 1082.15L1577.96 1083.26L1605.44 1099.13C1607.37 1100.24 1609.79 1100.24 1611.72 1099.13L1647.14 1078.63C1649.07 1077.53 1650.24 1075.45 1650.24 1073.18V1041.83L1642.72 1046.11V1058.4Z" fill="#F0F2F5"/>
<path d="M1719.14 1086.5L1694.36 1078.98V1072.97L1720.25 1080.77L1728.81 1077.39V1063.79L1697.46 1053.85C1696.08 1053.43 1695.19 1052.12 1695.19 1050.74V1029.96C1695.19 1028.44 1696.29 1027.06 1697.81 1026.78L1721.83 1021.4C1722.39 1021.26 1723.01 1021.33 1723.56 1021.47L1746.55 1028.37V1034.31L1722.39 1026.65L1714.72 1028.72V1040.73L1746.34 1050.74C1747.72 1051.15 1748.62 1052.4 1748.69 1053.85L1748.76 1073.52C1748.76 1074.9 1747.93 1076.08 1746.69 1076.56L1721.35 1086.43C1720.66 1086.71 1719.83 1086.78 1719.14 1086.5Z" fill="#A3B7C2"/>
<path d="M1779.27 1054.88L1770.71 1065.65L1760.29 1054.4C1759.74 1053.85 1759.05 1053.5 1758.29 1053.5H1750.35L1766.5 1070.97L1753.94 1086.85L1769.95 1086.64C1770.78 1086.64 1771.54 1086.22 1772.02 1085.6L1797.22 1053.78H1781.41C1780.59 1053.85 1779.83 1054.19 1779.27 1054.88Z" fill="#A3B7C2"/>
<path d="M1816 1059.58H1833.61L1829.12 1054.19C1828.91 1053.92 1828.63 1053.78 1828.29 1053.78H1800.26C1799.64 1053.78 1799.23 1054.26 1799.23 1054.88C1799.23 1055.09 1799.29 1055.3 1799.43 1055.5L1816.76 1081.12H1797.5L1800.74 1086.36C1800.95 1086.71 1801.3 1086.85 1801.64 1086.85H1832.43C1833.05 1086.85 1833.47 1086.36 1833.47 1085.74C1833.47 1085.53 1833.4 1085.33 1833.26 1085.12L1816 1059.58Z" fill="#A3B7C2"/>
<path d="M1895.81 1084.91L1869.16 1022.78C1868.88 1022.09 1868.12 1021.67 1867.36 1021.95C1866.95 1022.09 1866.67 1022.37 1866.54 1022.78L1839.89 1084.91C1839.54 1085.6 1839.82 1086.43 1840.51 1086.78C1840.72 1086.85 1840.92 1086.91 1841.13 1086.91H1851.49L1864.81 1055.85L1877.51 1086.91H1894.43C1895.19 1086.91 1895.81 1086.36 1895.88 1085.6C1895.95 1085.33 1895.95 1085.12 1895.81 1084.91Z" fill="#A3B7C2"/>
<path d="M1926.94 1023.26H1915C1914.17 1023.26 1913.48 1023.95 1913.48 1024.78V1053.78H1897.33H1890.84C1890.28 1053.78 1889.87 1054.19 1889.87 1054.74C1889.87 1054.88 1889.87 1055.02 1889.94 1055.16L1902.3 1084.98C1902.78 1086.16 1903.89 1086.91 1905.13 1086.91H1929.29V1024.85C1929.29 1024.02 1928.6 1023.33 1927.77 1023.33H1926.94V1023.26ZM1904.16 1059.58H1913.48V1082.08L1904.16 1059.58Z" fill="#A3B7C2"/>
<line x1="1430.17" y1="172.789" x2="2049.17" y2="499.79" stroke="#E14A40" stroke-width="5"/>
<line x1="1430.17" y1="530.789" x2="2049.17" y2="857.789" stroke="#E14A40" stroke-width="5"/>
<line x1="1430.17" y1="885.789" x2="2049.17" y2="1212.79" stroke="#E14A40" stroke-width="5"/>
</svg>
