<svg width="1076" height="625" viewBox="0 0 1076 625" fill="none" xmlns="http://www.w3.org/2000/svg">
<rect width="1076" height="625" fill="white"/>
<path d="M438.4 385.22V285.62L356.9 238.62C353.9 236.92 350.3 236.92 347.3 238.62L265.9 285.62V385.22L347.4 432.22C350.3 433.92 354 434.02 356.9 432.32L438.4 385.22Z" fill="#14A39E"/>
<path d="M403.1 342.22L398.3 345.02V327.22L390.1 331.82V349.72L336 381.02L323.6 373.82L353.4 357.32L333 345.52V322.02L303.9 339.52V325.62L370.9 286.92L386.7 296.22L397.6 290.02L358.1 266.92C355.3 265.32 351.8 265.32 349 266.92L297.7 296.52C294.9 298.12 293.2 301.12 293.2 304.42V349.62L279.5 376.62L309.3 378.22L349.1 401.22C351.9 402.82 355.4 402.82 358.2 401.22L409.5 371.52C412.3 369.92 414 366.92 414 363.62V318.22L403.1 324.42V342.22Z" fill="white"/>
<path d="M513.8 382.92L477.9 372.02V363.32L515.4 374.62L527.8 369.72V350.02L482.4 335.62C480.4 335.02 479.1 333.12 479.1 331.12V301.02C479.1 298.82 480.7 296.82 482.9 296.42L517.7 288.62C518.5 288.42 519.4 288.52 520.2 288.72L553.5 298.72V307.32L518.5 296.22L507.4 299.22V316.62L553.2 331.12C555.2 331.72 556.5 333.52 556.6 335.62L556.7 364.12C556.7 366.12 555.5 367.82 553.7 368.52L517 382.82C516 383.22 514.8 383.32 513.8 382.92Z" fill="#3A3B3B"/>
<path d="M600.9 337.12L588.5 352.72L573.4 336.42C572.6 335.62 571.6 335.12 570.5 335.12H559L582.4 360.42L564.2 383.42L587.4 383.12C588.6 383.12 589.7 382.52 590.4 381.62L626.9 335.52H604C602.8 335.62 601.7 336.12 600.9 337.12Z" fill="#3A3B3B"/>
<path d="M654.1 343.92H679.6L673.1 336.12C672.8 335.72 672.4 335.52 671.9 335.52H631.3C630.4 335.52 629.8 336.22 629.8 337.12C629.8 337.42 629.9 337.72 630.1 338.02L655.2 375.12H627.3L632 382.72C632.3 383.22 632.8 383.42 633.3 383.42H677.9C678.8 383.42 679.4 382.72 679.4 381.82C679.4 381.52 679.3 381.22 679.1 380.92L654.1 343.92Z" fill="#3A3B3B"/>
<path d="M769.7 380.62L731.1 290.62C730.7 289.62 729.6 289.02 728.5 289.42C727.9 289.62 727.5 290.02 727.3 290.62L688.7 380.62C688.2 381.62 688.6 382.82 689.6 383.32C689.9 383.42 690.2 383.52 690.5 383.52H705.5L724.8 338.52L743.2 383.52H767.7C768.8 383.52 769.7 382.72 769.8 381.62C769.9 381.22 769.9 380.92 769.7 380.62Z" fill="#3A3B3B"/>
<path d="M814.8 291.32H797.5C796.3 291.32 795.3 292.32 795.3 293.52V335.52H771.9H762.5C761.7 335.52 761.1 336.12 761.1 336.92C761.1 337.12 761.1 337.32 761.2 337.52L779.1 380.72C779.8 382.42 781.4 383.52 783.2 383.52H818.2V293.62C818.2 292.42 817.2 291.42 816 291.42H814.8V291.32ZM781.8 343.92H795.3V376.52L781.8 343.92Z" fill="#3A3B3B"/>
<path opacity="0.5" d="M917.7 527.12V533.12H911.7" stroke="#14A39E" stroke-miterlimit="10"/>
<path opacity="0.5" d="M899.5 533.12H178.4" stroke="#14A39E" stroke-miterlimit="10" stroke-dasharray="12.12 12.12"/>
<path opacity="0.5" d="M172.3 533.12H166.3V527.12" stroke="#14A39E" stroke-miterlimit="10"/>
<path opacity="0.5" d="M166.3 514.72V149.92" stroke="#14A39E" stroke-miterlimit="10" stroke-dasharray="12.37 12.37"/>
<path opacity="0.5" d="M166.3 143.72V137.72H172.3" stroke="#14A39E" stroke-miterlimit="10"/>
<path opacity="0.5" d="M184.4 137.72H905.6" stroke="#14A39E" stroke-miterlimit="10" stroke-dasharray="12.12 12.12"/>
<path opacity="0.5" d="M911.7 137.72H917.7V143.72" stroke="#14A39E" stroke-miterlimit="10"/>
<path opacity="0.5" d="M917.7 156.02V520.92" stroke="#14A39E" stroke-miterlimit="10" stroke-dasharray="12.37 12.37"/>
<path opacity="0.5" d="M265.9 137.72V143.72" stroke="#14A39E" stroke-miterlimit="10"/>
<path opacity="0.5" d="M265.9 156.02V520.92" stroke="#14A39E" stroke-miterlimit="10" stroke-dasharray="12.37 12.37"/>
<path opacity="0.5" d="M265.9 527.12V533.12" stroke="#14A39E" stroke-miterlimit="10"/>
<path opacity="0.5" d="M917.7 237.32H911.7" stroke="#14A39E" stroke-miterlimit="10"/>
<path opacity="0.5" d="M899.5 237.32H178.4" stroke="#14A39E" stroke-miterlimit="10" stroke-dasharray="12.12 12.12"/>
<path opacity="0.5" d="M172.3 237.32H166.3" stroke="#14A39E" stroke-miterlimit="10"/>
<path opacity="0.5" d="M917.7 432.22H911.7" stroke="#14A39E" stroke-miterlimit="10"/>
<path opacity="0.5" d="M899.5 432.22H178.4" stroke="#14A39E" stroke-miterlimit="10" stroke-dasharray="12.12 12.12"/>
<path opacity="0.5" d="M172.3 432.22H166.3" stroke="#14A39E" stroke-miterlimit="10"/>
<path opacity="0.5" d="M818.1 137.72V143.72" stroke="#14A39E" stroke-miterlimit="10"/>
<path opacity="0.5" d="M818.1 156.02V520.92" stroke="#14A39E" stroke-miterlimit="10" stroke-dasharray="12.37 12.37"/>
<path opacity="0.5" d="M818.1 527.12V533.12" stroke="#14A39E" stroke-miterlimit="10"/>
<path d="M248.3 285.62H240.7V385.22H248.3" stroke="#14A39E" stroke-width="2" stroke-miterlimit="10"/>
<path d="M219.087 343V331H219.047L215.287 334.4L214.487 332.6L219.087 328.4H221.287V343H219.087Z" fill="#14A39E"/>
<path d="M146.3 137.72H138.7V237.32H146.3" stroke="#14A39E" stroke-width="2" stroke-miterlimit="10"/>
<path d="M117.1 196V184H117.06L113.3 187.4L112.5 185.6L117.1 181.4H119.3V196H117.1Z" fill="#14A39E"/>
<path d="M265.9 117.32V109.72H166.3V117.32" stroke="#14A39E" stroke-width="2" stroke-miterlimit="10"/>
<path d="M214.29 95V83H214.25L210.49 86.4L209.69 84.6L214.29 80.4H216.49V95H214.29Z" fill="#14A39E"/>
</svg>
