<svg width="1490" height="1141" viewBox="0 0 1490 1141" fill="none" xmlns="http://www.w3.org/2000/svg">
<rect width="1490" height="1141" fill="white"/>
<rect x="119" y="201" width="519" height="273" fill="#F0F2F5"/>
<rect x="822" y="201" width="519" height="273" fill="url(#paint0_linear)"/>
<rect x="120" y="709" width="519" height="273" fill="url(#paint1_linear)"/>
<path d="M307.089 372.088V303.328L250.824 270.88C248.752 269.707 246.267 269.707 244.196 270.88L188 303.328V372.088L244.265 404.536C246.267 405.709 248.821 405.778 250.824 404.605L307.089 372.088Z" fill="#14A39E"/>
<path d="M282.718 342.402L279.405 344.335V332.047L273.744 335.223V347.58L236.395 369.189L227.834 364.218L248.407 352.827L234.324 344.681V328.457L214.234 340.538V330.942L260.489 304.225L271.396 310.645L278.921 306.365L251.652 290.418C249.719 289.313 247.303 289.313 245.37 290.418L209.954 310.853C208.021 311.957 206.847 314.028 206.847 316.307V347.511L197.389 366.151L217.962 367.256L245.439 383.134C247.372 384.239 249.788 384.239 251.721 383.134L287.137 362.63C289.07 361.526 290.244 359.455 290.244 357.176V325.834L282.718 330.114V342.402Z" fill="white"/>
<path d="M359.142 370.5L334.358 362.975V356.969L360.247 364.77L368.808 361.388V347.787L337.465 337.846C336.084 337.432 335.187 336.12 335.187 334.739V313.959C335.187 312.44 336.291 311.06 337.81 310.784L361.835 305.399C362.387 305.261 363.008 305.33 363.561 305.468L386.55 312.371V318.309L362.387 310.645L354.724 312.717V324.729L386.343 334.739C387.724 335.154 388.621 336.396 388.69 337.846L388.759 357.521C388.759 358.902 387.931 360.076 386.688 360.559L361.352 370.431C360.661 370.708 359.833 370.777 359.142 370.5Z" fill="#3A3B3B"/>
<path d="M419.274 338.882L410.713 349.651L400.288 338.398C399.736 337.846 399.046 337.501 398.286 337.501H390.347L406.502 354.967L393.937 370.846L409.954 370.639C410.782 370.639 411.541 370.224 412.025 369.603L437.223 337.777H421.414C420.585 337.846 419.826 338.191 419.274 338.882Z" fill="#3A3B3B"/>
<path d="M456.001 343.576H473.606L469.118 338.191C468.911 337.915 468.635 337.777 468.29 337.777H440.261C439.639 337.777 439.225 338.26 439.225 338.882C439.225 339.089 439.294 339.296 439.432 339.503L456.761 365.116H437.499L440.744 370.362C440.951 370.708 441.296 370.846 441.641 370.846H472.432C473.053 370.846 473.468 370.362 473.468 369.741C473.468 369.534 473.398 369.327 473.26 369.12L456.001 343.576Z" fill="#3A3B3B"/>
<path d="M535.808 368.913L509.159 306.779C508.883 306.089 508.124 305.675 507.365 305.951C506.95 306.089 506.674 306.365 506.536 306.779L479.888 368.913C479.543 369.603 479.819 370.431 480.509 370.777C480.716 370.846 480.923 370.915 481.131 370.915H491.486L504.81 339.848L517.513 370.915H534.427C535.186 370.915 535.808 370.362 535.877 369.603C535.946 369.327 535.946 369.12 535.808 368.913Z" fill="#3A3B3B"/>
<path d="M566.943 307.263H555C554.172 307.263 553.481 307.953 553.481 308.782V337.777H537.327H530.837C530.285 337.777 529.871 338.191 529.871 338.744C529.871 338.882 529.871 339.02 529.94 339.158L542.297 368.982C542.781 370.155 543.885 370.915 545.128 370.915H569.291V308.851C569.291 308.022 568.6 307.332 567.772 307.332H566.943V307.263ZM544.161 343.576H553.481V366.082L544.161 343.576Z" fill="#3A3B3B"/>
<path d="M1010.09 372.088V303.328L953.824 270.88C951.752 269.707 949.267 269.707 947.196 270.88L891 303.328V372.088L947.265 404.536C949.267 405.709 951.821 405.778 953.824 404.605L1010.09 372.088Z" fill="#14A39E"/>
<path d="M985.718 342.402L982.405 344.335V332.047L976.744 335.223V347.58L939.395 369.189L930.834 364.218L951.407 352.827L937.324 344.681V328.457L917.234 340.538V330.942L963.489 304.225L974.396 310.645L981.921 306.365L954.652 290.418C952.719 289.313 950.303 289.313 948.37 290.418L912.954 310.853C911.021 311.957 909.847 314.028 909.847 316.307V347.511L900.389 366.151L920.962 367.256L948.439 383.134C950.372 384.239 952.788 384.239 954.721 383.134L990.137 362.63C992.07 361.526 993.244 359.455 993.244 357.176V325.834L985.718 330.114V342.402Z" fill="white"/>
<path d="M1062.14 370.5L1037.36 362.975V356.969L1063.25 364.77L1071.81 361.388V347.787L1040.46 337.846C1039.08 337.432 1038.19 336.12 1038.19 334.739V313.959C1038.19 312.44 1039.29 311.06 1040.81 310.784L1064.83 305.399C1065.39 305.261 1066.01 305.33 1066.56 305.468L1089.55 312.371V318.309L1065.39 310.645L1057.72 312.717V324.729L1089.34 334.739C1090.72 335.154 1091.62 336.396 1091.69 337.846L1091.76 357.521C1091.76 358.902 1090.93 360.076 1089.69 360.559L1064.35 370.431C1063.66 370.708 1062.83 370.777 1062.14 370.5Z" fill="#3A3B3B"/>
<path d="M1122.27 338.882L1113.71 349.651L1103.29 338.398C1102.74 337.846 1102.05 337.501 1101.29 337.501H1093.35L1109.5 354.967L1096.94 370.846L1112.95 370.639C1113.78 370.639 1114.54 370.224 1115.02 369.603L1140.22 337.777H1124.41C1123.59 337.846 1122.83 338.191 1122.27 338.882Z" fill="#3A3B3B"/>
<path d="M1159 343.576H1176.61L1172.12 338.191C1171.91 337.915 1171.63 337.777 1171.29 337.777H1143.26C1142.64 337.777 1142.23 338.26 1142.23 338.882C1142.23 339.089 1142.29 339.296 1142.43 339.503L1159.76 365.116H1140.5L1143.74 370.362C1143.95 370.708 1144.3 370.846 1144.64 370.846H1175.43C1176.05 370.846 1176.47 370.362 1176.47 369.741C1176.47 369.534 1176.4 369.327 1176.26 369.12L1159 343.576Z" fill="#3A3B3B"/>
<path d="M1238.81 368.913L1212.16 306.779C1211.88 306.089 1211.12 305.675 1210.36 305.951C1209.95 306.089 1209.67 306.365 1209.54 306.779L1182.89 368.913C1182.54 369.603 1182.82 370.431 1183.51 370.777C1183.72 370.846 1183.92 370.915 1184.13 370.915H1194.49L1207.81 339.848L1220.51 370.915H1237.43C1238.19 370.915 1238.81 370.362 1238.88 369.603C1238.95 369.327 1238.95 369.12 1238.81 368.913Z" fill="#3A3B3B"/>
<path d="M1269.94 307.263H1258C1257.17 307.263 1256.48 307.953 1256.48 308.782V337.777H1240.33H1233.84C1233.28 337.777 1232.87 338.191 1232.87 338.744C1232.87 338.882 1232.87 339.02 1232.94 339.158L1245.3 368.982C1245.78 370.155 1246.89 370.915 1248.13 370.915H1272.29V308.851C1272.29 308.022 1271.6 307.332 1270.77 307.332H1269.94V307.263ZM1247.16 343.576H1256.48V366.082L1247.16 343.576Z" fill="#3A3B3B"/>
<path fill-rule="evenodd" clip-rule="evenodd" d="M308.089 811.328V880.088L251.824 912.605C249.821 913.778 247.267 913.709 245.265 912.536L189 880.088V811.328L245.196 778.88C247.267 777.707 249.752 777.707 251.824 778.88L308.089 811.328ZM280.405 852.335L283.718 850.402V838.114L291.244 833.834V865.176C291.244 867.455 290.07 869.526 288.137 870.63L252.721 891.134C250.788 892.239 248.372 892.239 246.439 891.134L218.962 875.256L198.389 874.151L207.847 855.511V824.307C207.847 822.028 209.021 819.957 210.954 818.853L246.37 798.418C248.303 797.313 250.719 797.313 252.652 798.418L279.921 814.365L272.396 818.645L261.489 812.225L215.234 838.942V848.538L235.324 836.457V852.681L249.407 860.827L228.834 872.218L237.395 877.189L274.744 855.58V843.223L280.405 840.047V852.335Z" fill="#A3B7C2"/>
<path d="M360.142 878.5L335.358 870.975V864.969L361.247 872.77L369.808 869.388V855.787L338.465 845.846C337.084 845.432 336.187 844.12 336.187 842.739V821.959C336.187 820.44 337.291 819.06 338.81 818.784L362.835 813.399C363.387 813.261 364.008 813.33 364.561 813.468L387.55 820.371V826.309L363.387 818.645L355.724 820.717V832.729L387.343 842.739C388.724 843.154 389.621 844.396 389.69 845.846L389.759 865.521C389.759 866.902 388.931 868.076 387.688 868.559L362.352 878.431C361.661 878.708 360.833 878.777 360.142 878.5Z" fill="#A3B7C2"/>
<path d="M420.274 846.882L411.713 857.651L401.288 846.398C400.736 845.846 400.046 845.501 399.286 845.501H391.347L407.502 862.967L394.937 878.846L410.954 878.639C411.782 878.639 412.541 878.224 413.025 877.603L438.223 845.777H422.414C421.585 845.846 420.826 846.191 420.274 846.882Z" fill="#A3B7C2"/>
<path d="M457.001 851.576H474.606L470.118 846.191C469.911 845.915 469.635 845.777 469.29 845.777H441.261C440.639 845.777 440.225 846.26 440.225 846.882C440.225 847.089 440.294 847.296 440.432 847.503L457.761 873.116H438.499L441.744 878.362C441.951 878.708 442.296 878.846 442.641 878.846H473.432C474.053 878.846 474.468 878.362 474.468 877.741C474.468 877.534 474.398 877.327 474.26 877.12L457.001 851.576Z" fill="#A3B7C2"/>
<path d="M536.808 876.913L510.159 814.779C509.883 814.089 509.124 813.675 508.365 813.951C507.95 814.089 507.674 814.365 507.536 814.779L480.888 876.913C480.543 877.603 480.819 878.431 481.509 878.777C481.716 878.846 481.923 878.915 482.131 878.915H492.486L505.81 847.848L518.513 878.915H535.427C536.186 878.915 536.808 878.362 536.877 877.603C536.946 877.327 536.946 877.12 536.808 876.913Z" fill="#A3B7C2"/>
<path d="M567.943 815.263H556C555.172 815.263 554.481 815.953 554.481 816.782V845.777H538.327H531.837C531.285 845.777 530.871 846.191 530.871 846.744C530.871 846.882 530.871 847.02 530.94 847.158L543.297 876.982C543.781 878.155 544.885 878.915 546.128 878.915H570.291V816.851C570.291 816.022 569.6 815.332 568.772 815.332H567.943V815.263ZM545.161 851.576H554.481V874.082L545.161 851.576Z" fill="#A3B7C2"/>
<path d="M381.875 629.25H377.125V617.375H381.875V629.25ZM381.875 638.75H377.125V634H381.875V638.75ZM353.375 645.875H405.625L379.5 600.75L353.375 645.875Z" fill="#EDAB4A"/>
<path d="M1082 91C1095.75 91 1107 102.25 1107 116C1107 129.75 1095.75 141 1082 141C1068.25 141 1057 129.75 1057 116C1057 102.25 1068.25 91 1082 91ZM1082 96C1077.25 96 1073 97.5 1069.75 100.25L1097.75 128.25C1100.25 124.75 1102 120.5 1102 116C1102 105 1093 96 1082 96V96ZM1094.25 131.75L1066.25 103.75C1063.5 107 1062 111.25 1062 116C1062 127 1071 136 1082 136C1086.75 136 1091 134.5 1094.25 131.75V131.75Z" fill="#E14A40"/>
<path d="M401.5 105.5L371.5 135.5L357.75 121.75L361.275 118.225L371.5 128.425L397.975 101.975L401.5 105.5Z" fill="#14A39E"/>
<line x1="773.168" y1="172.789" x2="1392.17" y2="499.79" stroke="#E14A40" stroke-width="5"/>
<defs>
<linearGradient id="paint0_linear" x1="1300.5" y1="235.5" x2="828.5" y2="459.5" gradientUnits="userSpaceOnUse">
<stop stop-color="#FF96F4"/>
<stop offset="1" stop-color="#1C70EE"/>
</linearGradient>
<linearGradient id="paint1_linear" x1="297.5" y1="982" x2="294.5" y2="709" gradientUnits="userSpaceOnUse">
<stop stop-color="#122329"/>
<stop offset="1" stop-color="#375964"/>
</linearGradient>
</defs>
</svg>
