<svg width="735" height="692" viewBox="0 0 735 692" fill="none" xmlns="http://www.w3.org/2000/svg">
<rect width="735" height="692" fill="white"/>
<path d="M226 284H219V415H226" stroke="#14A39E" stroke-width="2" stroke-miterlimit="10"/>
<path d="M163 153H156V219H163" stroke="#14A39E" stroke-width="2" stroke-miterlimit="10"/>
<path d="M197.1 357V345H197.06L193.3 348.4L192.5 346.6L197.1 342.4H199.3V357H197.1Z" fill="#14A39E"/>
<path d="M113.24 181.98C114.147 180.793 115.5 180.2 117.3 180.2C119.1 180.2 120.447 180.793 121.34 181.98C122.247 183.167 122.7 185.073 122.7 187.7C122.7 190.327 122.247 192.233 121.34 193.42C120.447 194.607 119.1 195.2 117.3 195.2C115.5 195.2 114.147 194.607 113.24 193.42C112.347 192.233 111.9 190.327 111.9 187.7C111.9 185.073 112.347 183.167 113.24 181.98ZM114.88 192.14C115.413 193.007 116.22 193.44 117.3 193.44C118.38 193.44 119.18 193.007 119.7 192.14C120.233 191.26 120.5 189.78 120.5 187.7C120.5 185.62 120.233 184.147 119.7 183.28C119.18 182.4 118.38 181.96 117.3 181.96C116.22 181.96 115.413 182.4 114.88 183.28C114.36 184.147 114.1 185.62 114.1 187.7C114.1 189.78 114.36 191.26 114.88 192.14ZM125.438 195V192H128.038V195H125.438ZM140.387 182.2H134.287L134.087 186.2H134.127C134.847 185.8 135.667 185.6 136.587 185.6C137.973 185.6 139.053 185.993 139.827 186.78C140.6 187.567 140.987 188.673 140.987 190.1C140.987 191.78 140.513 193.053 139.567 193.92C138.62 194.773 137.227 195.2 135.387 195.2C134.013 195.2 132.747 194.9 131.587 194.3L132.087 192.5C133.273 193.1 134.373 193.4 135.387 193.4C137.653 193.4 138.787 192.3 138.787 190.1C138.787 188.247 137.92 187.32 136.187 187.32C135.2 187.32 134.4 187.613 133.787 188.2H131.887L132.287 180.4H140.387V182.2Z" fill="#14A39E"/>
<line x1="172" y1="218.5" x2="557" y2="218.5" stroke="#14A39E" stroke-opacity="0.5" stroke-dasharray="12 12"/>
<line x1="173" y1="479.5" x2="557" y2="479.5" stroke="#14A39E" stroke-opacity="0.5" stroke-dasharray="12 12"/>
<line x1="251.5" y1="154" x2="251.5" y2="539" stroke="#14A39E" stroke-opacity="0.5" stroke-dasharray="12 12"/>
<line x1="479.5" y1="154" x2="479.5" y2="539" stroke="#14A39E" stroke-opacity="0.5" stroke-dasharray="12 12"/>
<circle cx="364.5" cy="346.5" r="192" stroke="#14A39E" stroke-opacity="0.5" stroke-dasharray="12 12"/>
<g clip-path="url(#clip0)">
<path d="M479.7 415.46V283.46L370.5 220.46C368.932 219.556 367.155 219.08 365.345 219.08C363.535 219.08 361.758 219.556 360.19 220.46L251 283.42V415.42L360.19 478.42C361.758 479.324 363.535 479.8 365.345 479.8C367.155 479.8 368.932 479.324 370.5 478.42L479.7 415.46Z" fill="#14A39E"/>
<path d="M432.85 358.49L426.47 362.18V338.6L415.64 344.73V368.43L343.87 409.87L327.42 400.37L366.96 378.37L340 362.83V331.64L301.42 354.77V336.34L390.21 285.08L411.21 297.37L425.61 289.13L373.19 258.44C371.355 257.37 369.269 256.806 367.145 256.806C365.021 256.806 362.935 257.37 361.1 258.44L293 297.7C291.173 298.755 289.657 300.272 288.603 302.1C287.55 303.928 286.997 306.001 287 308.11V368.11L268.92 403.83L308.35 406L361.12 436.47C362.944 437.523 365.013 438.078 367.12 438.078C369.226 438.078 371.296 437.523 373.12 436.47L441.19 397.17C443.018 396.114 444.536 394.595 445.589 392.766C446.643 390.936 447.195 388.861 447.19 386.75V326.61L432.8 334.8L432.85 358.49Z" fill="white"/>
</g>
<rect x="173.5" y="154.5" width="383" height="384" stroke="#14A39E" stroke-opacity="0.5" stroke-dasharray="12 12"/>
<defs>
<clipPath id="clip0">
<rect width="228.7" height="260.89" fill="white" transform="translate(251 219)"/>
</clipPath>
</defs>
</svg>
